<svg xmlns="http://www.w3.org/2000/svg" xmlns:xlink="http://www.w3.org/1999/xlink" width="500" zoomAndPan="magnify" viewBox="0 0 375 374.999991" height="500" preserveAspectRatio="xMidYMid meet" version="1.0"><defs><g/><clipPath id="429d56c1e8"><path d="M 174 128 L 265 128 L 265 221 L 174 221 Z M 174 128 " clip-rule="nonzero"/></clipPath><clipPath id="fd099136b7"><path d="M 174.292969 158.507812 L 232.089844 128.222656 L 264.464844 190.003906 L 206.671875 220.289062 Z M 174.292969 158.507812 " clip-rule="nonzero"/></clipPath><clipPath id="c4b51891fb"><path d="M 14 14 L 65 14 L 65 76 L 14 76 Z M 14 14 " clip-rule="nonzero"/></clipPath><clipPath id="b1b0b563df"><path d="M 0.292969 30.507812 L 58.089844 0.222656 L 90.464844 62.003906 L 32.671875 92.289062 Z M 0.292969 30.507812 " clip-rule="nonzero"/></clipPath><clipPath id="08557202ee"><path d="M 58.316406 0.101562 L 0.523438 30.390625 L 32.898438 92.171875 L 90.691406 61.882812 Z M 58.316406 0.101562 " clip-rule="nonzero"/></clipPath><clipPath id="0f788137f4"><path d="M 10 33 L 19 33 L 19 56 L 10 56 Z M 10 33 " clip-rule="nonzero"/></clipPath><clipPath id="2633226f09"><path d="M 0.292969 30.507812 L 58.089844 0.222656 L 90.464844 62.003906 L 32.671875 92.289062 Z M 0.292969 30.507812 " clip-rule="nonzero"/></clipPath><clipPath id="99c5cdf16a"><path d="M 58.316406 0.101562 L 0.523438 30.390625 L 32.898438 92.171875 L 90.691406 61.882812 Z M 58.316406 0.101562 " clip-rule="nonzero"/></clipPath><clipPath id="0de8843f97"><path d="M 24 25 L 31 25 L 31 39 L 24 39 Z M 24 25 " clip-rule="nonzero"/></clipPath><clipPath id="c27a46e8cd"><path d="M 0.292969 30.507812 L 58.089844 0.222656 L 90.464844 62.003906 L 32.671875 92.289062 Z M 0.292969 30.507812 " clip-rule="nonzero"/></clipPath><clipPath id="da5dd2da46"><path d="M 58.316406 0.101562 L 0.523438 30.390625 L 32.898438 92.171875 L 90.691406 61.882812 Z M 58.316406 0.101562 " clip-rule="nonzero"/></clipPath><clipPath id="d8e40e7183"><path d="M 29 23 L 37 23 L 37 34 L 29 34 Z M 29 23 " clip-rule="nonzero"/></clipPath><clipPath id="8b1bae91e0"><path d="M 0.292969 30.507812 L 58.089844 0.222656 L 90.464844 62.003906 L 32.671875 92.289062 Z M 0.292969 30.507812 " clip-rule="nonzero"/></clipPath><clipPath id="a0de16bae1"><path d="M 58.316406 0.101562 L 0.523438 30.390625 L 32.898438 92.171875 L 90.691406 61.882812 Z M 58.316406 0.101562 " clip-rule="nonzero"/></clipPath><clipPath id="dd02fdd9e7"><path d="M 22 32 L 28 32 L 28 46 L 22 46 Z M 22 32 " clip-rule="nonzero"/></clipPath><clipPath id="dfd5fb8ba2"><path d="M 0.292969 30.507812 L 58.089844 0.222656 L 90.464844 62.003906 L 32.671875 92.289062 Z M 0.292969 30.507812 " clip-rule="nonzero"/></clipPath><clipPath id="a2e785c5e5"><path d="M 58.316406 0.101562 L 0.523438 30.390625 L 32.898438 92.171875 L 90.691406 61.882812 Z M 58.316406 0.101562 " clip-rule="nonzero"/></clipPath><clipPath id="dcf22ab830"><path d="M 43 22 L 46 22 L 46 25 L 43 25 Z M 43 22 " clip-rule="nonzero"/></clipPath><clipPath id="a671d4bb58"><path d="M 0.292969 30.507812 L 58.089844 0.222656 L 90.464844 62.003906 L 32.671875 92.289062 Z M 0.292969 30.507812 " clip-rule="nonzero"/></clipPath><clipPath id="3ef6dd7e51"><path d="M 58.316406 0.101562 L 0.523438 30.390625 L 32.898438 92.171875 L 90.691406 61.882812 Z M 58.316406 0.101562 " clip-rule="nonzero"/></clipPath><clipPath id="5eb552a3d8"><path d="M 30 32 L 42 32 L 42 38 L 30 38 Z M 30 32 " clip-rule="nonzero"/></clipPath><clipPath id="8316cd3566"><path d="M 0.292969 30.507812 L 58.089844 0.222656 L 90.464844 62.003906 L 32.671875 92.289062 Z M 0.292969 30.507812 " clip-rule="nonzero"/></clipPath><clipPath id="4c8352fea6"><path d="M 58.316406 0.101562 L 0.523438 30.390625 L 32.898438 92.171875 L 90.691406 61.882812 Z M 58.316406 0.101562 " clip-rule="nonzero"/></clipPath><clipPath id="ee0ee21560"><path d="M 22 38 L 80 38 L 80 61 L 22 61 Z M 22 38 " clip-rule="nonzero"/></clipPath><clipPath id="d5a4cd02ed"><path d="M 0.292969 30.507812 L 58.089844 0.222656 L 90.464844 62.003906 L 32.671875 92.289062 Z M 0.292969 30.507812 " clip-rule="nonzero"/></clipPath><clipPath id="247283fc0c"><path d="M 58.316406 0.101562 L 0.523438 30.390625 L 32.898438 92.171875 L 90.691406 61.882812 Z M 58.316406 0.101562 " clip-rule="nonzero"/></clipPath><clipPath id="8b8aa86829"><path d="M 58 24 L 60 24 L 60 26 L 58 26 Z M 58 24 " clip-rule="nonzero"/></clipPath><clipPath id="3b047465cb"><path d="M 0.292969 30.507812 L 58.089844 0.222656 L 90.464844 62.003906 L 32.671875 92.289062 Z M 0.292969 30.507812 " clip-rule="nonzero"/></clipPath><clipPath id="36d6d2dac8"><path d="M 58.316406 0.101562 L 0.523438 30.390625 L 32.898438 92.171875 L 90.691406 61.882812 Z M 58.316406 0.101562 " clip-rule="nonzero"/></clipPath><clipPath id="bcb3e3c3e7"><rect x="0" width="91" y="0" height="93"/></clipPath><clipPath id="4459f1cf02"><rect x="0" width="242" y="0" height="40"/></clipPath><clipPath id="ca1d37defb"><path d="M 32 0.160156 L 35 0.160156 L 35 10 L 32 10 Z M 32 0.160156 " clip-rule="nonzero"/></clipPath><clipPath id="ddbee1651d"><rect x="0" width="127" y="0" height="14"/></clipPath></defs><path fill="#fffdfa" d="M 201.492188 141.46875 C 163 125.683594 138.382812 181.875 175.203125 205.085938 C 151.609375 195.023438 144.394531 159.683594 167.941406 142.78125 C 137.625 143.554688 127.953125 180.910156 137.335938 204.617188 C 112.335938 157.355469 161.382812 111.660156 211.878906 143.882812 C 202.289062 130.496094 186.601562 121.765625 168.875 121.765625 C 146.820312 121.765625 127.917969 135.277344 119.996094 154.476562 C 120.222656 151.832031 120.605469 149.183594 121.152344 146.535156 C 121.789062 143.460938 122.648438 140.394531 123.734375 137.355469 C 136.339844 102.132812 175.113281 83.796875 210.335938 96.40625 C 245.558594 109.007812 263.894531 147.78125 251.285156 183.003906 C 249.589844 187.75 247.414062 192.1875 244.839844 196.285156 C 204.820312 209.660156 180.648438 190.738281 180.648438 190.738281 C 196.691406 213.859375 232.789062 204.488281 240.628906 202.242188 C 219.394531 212.515625 183.09375 209.878906 173.4375 184.777344 C 165.246094 163.476562 179.507812 135.660156 201.496094 141.464844 Z M 255.3125 184.445312 C 268.714844 147 249.222656 105.777344 211.773438 92.375 C 174.324219 78.972656 133.101562 98.464844 119.703125 135.914062 C 106.300781 173.363281 125.792969 214.585938 163.242188 227.988281 C 200.691406 241.390625 241.910156 221.894531 255.3125 184.445312 Z M 255.3125 184.445312 " fill-opacity="1" fill-rule="evenodd"/><g clip-path="url(#429d56c1e8)"><g clip-path="url(#fd099136b7)"><g transform="matrix(1, 0, 0, 1, 174, 128)"><g clip-path="url(#bcb3e3c3e7)"><g clip-path="url(#c4b51891fb)"><g clip-path="url(#b1b0b563df)"><g clip-path="url(#08557202ee)"><path fill="#fffdfa" d="M 37.941406 16.890625 C 37.289062 17.523438 36.871094 17.984375 36.695312 18.277344 C 35.195312 20.738281 34.773438 23.382812 35.429688 26.203125 C 35.816406 27.875 36.472656 29.425781 37.394531 30.855469 C 37.433594 30.914062 37.492188 30.949219 37.5625 30.953125 C 39.515625 31.113281 41.820312 31.574219 43.375 31.652344 C 47.617188 31.859375 51.339844 30.445312 54.539062 27.398438 C 55.722656 26.273438 56.914062 24.933594 58.105469 23.382812 C 58.132812 23.347656 58.128906 23.316406 58.097656 23.289062 C 50.976562 17.34375 41.546875 13.628906 32.210938 15.320312 C 31.167969 15.507812 30.175781 15.757812 29.242188 16.078125 C 26.570312 16.980469 24.226562 18.339844 22.207031 20.152344 C 17.679688 24.214844 15.246094 29.273438 14.910156 35.328125 C 14.722656 38.6875 15.1875 41.886719 16.3125 44.921875 C 16.832031 46.332031 17.503906 47.757812 18.320312 49.199219 C 18.832031 50.101562 19.398438 50.953125 20.011719 51.757812 C 24.148438 57.171875 29.5625 60.675781 36.253906 62.277344 C 36.304688 62.289062 36.34375 62.316406 36.371094 62.359375 C 40.488281 68.84375 47.828125 68.976562 54.617188 69.625 C 55.535156 69.710938 56.566406 69.941406 57.710938 70.3125 C 60.636719 71.261719 63.011719 72.902344 64.863281 75.386719 C 64.898438 75.4375 64.917969 75.433594 64.921875 75.371094 C 65.070312 72.410156 64.21875 69.441406 62.351562 67.136719 C 58.15625 61.957031 50.914062 61.921875 44.917969 61.652344 C 43.753906 61.597656 42.394531 61.445312 40.835938 61.183594 C 32.484375 59.800781 25.542969 54.871094 22.503906 46.828125 C 21.476562 44.105469 21.109375 41.175781 21.410156 38.042969 C 21.835938 33.578125 23.644531 29.757812 26.835938 26.589844 C 28.753906 24.6875 31.359375 23.339844 33.941406 22.625 C 34.050781 22.59375 34.109375 22.523438 34.121094 22.414062 C 34.347656 20.160156 35.367188 17.691406 37.074219 16.113281 C 37.117188 16.074219 37.160156 16.070312 37.207031 16.109375 L 37.9375 16.722656 C 38 16.777344 38.003906 16.832031 37.941406 16.890625 Z M 45.640625 25.089844 C 45.40625 25.207031 45.160156 25.277344 44.898438 25.292969 C 44.632812 25.3125 44.378906 25.277344 44.125 25.191406 C 43.875 25.105469 43.648438 24.976562 43.445312 24.800781 C 43.246094 24.625 43.082031 24.417969 42.960938 24.175781 C 42.839844 23.9375 42.765625 23.683594 42.742188 23.417969 C 42.71875 23.148438 42.746094 22.890625 42.828125 22.636719 C 42.90625 22.382812 43.03125 22.15625 43.199219 21.953125 C 43.367188 21.753906 43.570312 21.59375 43.800781 21.472656 C 44.035156 21.355469 44.28125 21.289062 44.546875 21.269531 C 44.808594 21.25 45.0625 21.285156 45.316406 21.371094 C 45.566406 21.457031 45.792969 21.585938 45.996094 21.761719 C 46.195312 21.9375 46.359375 22.148438 46.480469 22.386719 C 46.601562 22.625 46.675781 22.878906 46.699219 23.148438 C 46.722656 23.414062 46.695312 23.671875 46.613281 23.925781 C 46.535156 24.179688 46.414062 24.40625 46.242188 24.609375 C 46.074219 24.808594 45.875 24.96875 45.640625 25.089844 Z M 45.640625 25.089844 " fill-opacity="1" fill-rule="nonzero"/></g></g></g><g clip-path="url(#0f788137f4)"><g clip-path="url(#2633226f09)"><g clip-path="url(#99c5cdf16a)"><path fill="#fffdfa" d="M 10.914062 42.582031 C 10.535156 47.261719 11.410156 51.699219 13.859375 55.65625 C 13.890625 55.710938 13.933594 55.71875 13.980469 55.679688 C 14.820312 55.019531 15.730469 54.878906 16.707031 55.257812 C 16.761719 55.277344 16.796875 55.261719 16.8125 55.207031 C 17.140625 54.207031 17.792969 53.492188 18.765625 53.058594 C 18.824219 53.03125 18.835938 52.988281 18.804688 52.933594 C 18.683594 52.734375 18.488281 52.445312 18.214844 52.0625 C 16.996094 50.355469 15.960938 48.429688 15.105469 46.289062 C 13.734375 42.851562 13.117188 39.285156 13.25 35.597656 C 13.277344 34.929688 13.355469 34.253906 13.488281 33.570312 C 13.492188 33.550781 13.484375 33.539062 13.464844 33.53125 C 13.445312 33.527344 13.433594 33.53125 13.421875 33.550781 C 12.007812 36.390625 11.171875 39.402344 10.914062 42.582031 Z M 10.914062 42.582031 " fill-opacity="1" fill-rule="nonzero"/></g></g></g><g clip-path="url(#0de8843f97)"><g clip-path="url(#c27a46e8cd)"><g clip-path="url(#da5dd2da46)"><path fill="#fffdfa" d="M 28.628906 29.660156 C 28.601562 28.210938 29.042969 26.835938 29.957031 25.539062 C 29.976562 25.511719 29.972656 25.503906 29.941406 25.519531 C 28.34375 26.410156 27.011719 27.609375 25.949219 29.125 C 23.890625 32.066406 23.917969 36.316406 27.234375 38.351562 C 27.289062 38.386719 27.328125 38.375 27.347656 38.3125 C 27.960938 36.582031 28.929688 35.074219 30.253906 33.800781 C 30.28125 33.773438 30.285156 33.75 30.257812 33.722656 C 29.199219 32.496094 28.65625 31.144531 28.628906 29.660156 Z M 28.628906 29.660156 " fill-opacity="1" fill-rule="nonzero"/></g></g></g><g clip-path="url(#d8e40e7183)"><g clip-path="url(#8b1bae91e0)"><g clip-path="url(#a0de16bae1)"><path fill="#fffdfa" d="M 36.300781 31.171875 C 36.320312 31.167969 36.328125 31.15625 36.316406 31.136719 C 34.933594 28.957031 34.019531 26.320312 34.046875 23.71875 C 34.046875 23.671875 34.023438 23.65625 33.980469 23.671875 C 30.636719 24.820312 28.566406 28.179688 29.957031 31.625 C 30.15625 32.121094 30.496094 32.613281 30.976562 33.101562 C 31.015625 33.136719 31.054688 33.144531 31.101562 33.117188 C 32.257812 32.429688 33.042969 32.015625 33.453125 31.867188 C 34.308594 31.5625 35.257812 31.328125 36.300781 31.171875 Z M 36.300781 31.171875 " fill-opacity="1" fill-rule="nonzero"/></g></g></g><g clip-path="url(#dd02fdd9e7)"><g clip-path="url(#dfd5fb8ba2)"><g clip-path="url(#a2e785c5e5)"><path fill="#fffdfa" d="M 23.703125 33.351562 C 23.707031 33.179688 23.765625 33.023438 23.792969 32.859375 C 23.800781 32.832031 23.789062 32.8125 23.757812 32.800781 C 23.730469 32.792969 23.707031 32.804688 23.699219 32.832031 C 23.023438 34.484375 22.605469 36.140625 22.4375 37.796875 C 22.335938 38.828125 22.394531 39.734375 22.609375 40.515625 C 23.210938 42.699219 24.796875 44.59375 27.050781 45.203125 C 27.109375 45.21875 27.128906 45.195312 27.117188 45.136719 C 26.671875 43.226562 26.660156 41.316406 27.078125 39.40625 C 27.09375 39.335938 27.070312 39.28125 27.007812 39.246094 C 24.726562 37.9375 23.625 35.972656 23.703125 33.351562 Z M 23.703125 33.351562 " fill-opacity="1" fill-rule="nonzero"/></g></g></g><g clip-path="url(#dcf22ab830)"><g clip-path="url(#a671d4bb58)"><g clip-path="url(#3ef6dd7e51)"><path fill="#fffdfa" d="M 43.839844 23.753906 C 43.964844 23.992188 44.160156 24.152344 44.417969 24.234375 C 44.679688 24.316406 44.929688 24.292969 45.167969 24.167969 C 45.410156 24.039062 45.570312 23.847656 45.652344 23.589844 C 45.734375 23.328125 45.710938 23.078125 45.585938 22.835938 C 45.457031 22.597656 45.265625 22.4375 45.003906 22.355469 C 44.746094 22.273438 44.496094 22.296875 44.253906 22.421875 C 44.015625 22.550781 43.851562 22.742188 43.773438 23 C 43.691406 23.261719 43.714844 23.511719 43.839844 23.753906 Z M 43.839844 23.753906 " fill-opacity="1" fill-rule="nonzero"/></g></g></g><g clip-path="url(#5eb552a3d8)"><g clip-path="url(#8316cd3566)"><g clip-path="url(#4c8352fea6)"><path fill="#fffdfa" d="M 32.722656 35.753906 C 33.601562 36.148438 34.222656 36.832031 34.578125 37.800781 C 34.589844 37.828125 34.613281 37.847656 34.644531 37.851562 C 34.679688 37.851562 34.703125 37.839844 34.722656 37.8125 C 36.117188 35.566406 38.542969 33.902344 41.019531 33.210938 C 41.382812 33.109375 41.378906 33.03125 41.003906 32.972656 C 37.539062 32.441406 33.539062 32.488281 30.964844 35.351562 C 30.9375 35.378906 30.933594 35.410156 30.949219 35.441406 C 30.964844 35.476562 30.988281 35.492188 31.027344 35.492188 C 31.589844 35.484375 32.214844 35.523438 32.722656 35.753906 Z M 32.722656 35.753906 " fill-opacity="1" fill-rule="nonzero"/></g></g></g><g clip-path="url(#ee0ee21560)"><g clip-path="url(#d5a4cd02ed)"><g clip-path="url(#247283fc0c)"><path fill="#fffdfa" d="M 49.402344 57.214844 C 51.152344 56.578125 52.570312 55.910156 53.65625 55.214844 C 56.542969 53.367188 58.921875 51.003906 60.785156 48.132812 C 62.316406 45.777344 63.675781 43.363281 65.691406 41.367188 C 66.75 40.316406 68.101562 39.425781 69.742188 38.691406 C 69.855469 38.640625 70.066406 38.65625 70.113281 38.628906 C 70.269531 38.542969 70.261719 38.476562 70.085938 38.433594 C 63.898438 36.90625 58.65625 40.058594 54.824219 44.726562 C 52.664062 47.351562 50.523438 50.289062 47.863281 52.332031 C 46.867188 53.097656 45.699219 53.753906 44.351562 54.304688 C 41.640625 55.410156 38.910156 55.535156 36.15625 54.683594 C 34.761719 54.253906 33.355469 53.664062 32.183594 52.773438 C 29.976562 51.105469 28.300781 48.933594 27.421875 46.273438 C 27.40625 46.222656 27.371094 46.191406 27.316406 46.179688 C 25.242188 45.726562 23.660156 44.574219 22.574219 42.71875 C 22.566406 42.707031 22.554688 42.703125 22.539062 42.707031 C 22.523438 42.710938 22.515625 42.722656 22.515625 42.738281 C 22.589844 43.34375 22.710938 43.949219 22.878906 44.554688 C 24.046875 48.769531 26.269531 52.226562 29.546875 54.925781 C 33.152344 57.898438 37.675781 59.144531 42.242188 59.585938 C 46.078125 59.960938 50.742188 59.777344 54.578125 60.28125 C 55.824219 60.441406 56.8125 60.546875 57.546875 60.597656 C 62.074219 60.898438 66.660156 59.011719 69.394531 55.445312 C 71.585938 52.582031 73.007812 49.359375 74.65625 46.183594 C 75.71875 44.132812 77.210938 41.917969 79.132812 40.640625 C 79.335938 40.507812 79.316406 40.4375 79.074219 40.4375 C 77.492188 40.421875 75.953125 40.621094 74.464844 41.027344 C 71.449219 41.855469 68.617188 43.699219 66.382812 45.871094 C 63.34375 48.820312 60.6875 52.035156 57.289062 54.609375 C 57.078125 54.773438 56.769531 54.972656 56.367188 55.207031 C 55.941406 55.460938 55.53125 55.773438 55.117188 55.984375 C 53.375 56.867188 51.378906 57.5 49.410156 57.28125 C 49.308594 57.269531 49.308594 57.246094 49.402344 57.214844 Z M 49.402344 57.214844 " fill-opacity="1" fill-rule="nonzero"/></g></g></g><g clip-path="url(#8b8aa86829)"><g clip-path="url(#3b047465cb)"><g clip-path="url(#36d6d2dac8)"><path fill="#fffdfa" d="M 58.925781 25.144531 C 58.890625 25.183594 58.859375 25.222656 58.835938 25.269531 C 58.800781 25.335938 58.8125 25.347656 58.871094 25.300781 C 59 25.207031 59.097656 25.082031 59.160156 24.9375 C 59.171875 24.914062 59.164062 24.894531 59.140625 24.882812 C 59.117188 24.871094 59.097656 24.878906 59.085938 24.902344 L 59.019531 25.027344 C 58.996094 25.070312 58.964844 25.109375 58.925781 25.144531 Z M 58.925781 25.144531 " fill-opacity="1" fill-rule="nonzero"/></g></g></g></g></g></g></g><g transform="matrix(1, 0, 0, 1, 67, 227)"><g clip-path="url(#4459f1cf02)"><g fill="#fffdfa" fill-opacity="1"><g transform="translate(0.905842, 28.761095)"><g><path d="M 13.578125 -19.828125 L 13.578125 -17.40625 L 13.296875 -17.40625 L 13.296875 -17.84375 C 13.296875 -18.226562 13.160156 -18.554688 12.890625 -18.828125 C 12.617188 -19.109375 12.285156 -19.25 11.890625 -19.25 L 5.8125 -19.25 L 5.8125 -10.359375 L 10.671875 -10.359375 C 11.054688 -10.378906 11.382812 -10.523438 11.65625 -10.796875 C 11.925781 -11.066406 12.0625 -11.390625 12.0625 -11.765625 L 12.0625 -12.203125 L 12.34375 -12.203125 L 12.34375 -7.65625 L 12.0625 -7.65625 L 12.0625 -8.09375 C 12.0625 -8.46875 11.929688 -8.789062 11.671875 -9.0625 C 11.410156 -9.332031 11.085938 -9.476562 10.703125 -9.5 L 5.8125 -9.5 L 5.8125 -2.09375 C 5.8125 -1.601562 5.992188 -1.175781 6.359375 -0.8125 C 6.722656 -0.457031 7.15625 -0.28125 7.65625 -0.28125 L 8.03125 -0.28125 L 8.03125 0 L 1.734375 0 L 1.734375 -0.28125 L 2.09375 -0.28125 C 2.59375 -0.28125 3.019531 -0.457031 3.375 -0.8125 C 3.738281 -1.175781 3.925781 -1.601562 3.9375 -2.09375 L 3.9375 -18.21875 C 3.9375 -18.675781 3.75 -19.0625 3.375 -19.375 C 3.007812 -19.695312 2.582031 -19.859375 2.09375 -19.859375 L 1.75 -19.859375 L 1.734375 -20.140625 L 10.15625 -20.140625 C 10.75 -20.140625 11.394531 -20.195312 12.09375 -20.3125 C 12.800781 -20.4375 13.296875 -20.554688 13.578125 -20.671875 Z M 13.578125 -19.828125 "/></g></g></g><g fill="#fffdfa" fill-opacity="1"><g transform="translate(15.870462, 28.761095)"><g><path d="M 2.09375 -0.28125 C 2.59375 -0.28125 3.019531 -0.457031 3.375 -0.8125 C 3.738281 -1.175781 3.925781 -1.601562 3.9375 -2.09375 L 3.9375 -18.078125 C 3.925781 -18.578125 3.738281 -19 3.375 -19.34375 C 3.019531 -19.6875 2.59375 -19.859375 2.09375 -19.859375 L 1.734375 -19.859375 L 1.734375 -20.140625 L 8.03125 -20.140625 L 8.03125 -19.859375 L 7.65625 -19.859375 C 7.15625 -19.859375 6.726562 -19.6875 6.375 -19.34375 C 6.019531 -19 5.832031 -18.578125 5.8125 -18.078125 L 5.8125 -2.09375 C 5.8125 -1.601562 5.992188 -1.175781 6.359375 -0.8125 C 6.722656 -0.457031 7.15625 -0.28125 7.65625 -0.28125 L 8.03125 -0.28125 L 8.03125 0 L 1.734375 0 L 1.734375 -0.28125 Z M 2.09375 -0.28125 "/></g></g></g><g fill="#fffdfa" fill-opacity="1"><g transform="translate(24.993084, 28.761095)"><g><path d="M 22.390625 -19.859375 C 21.910156 -19.859375 21.5 -19.691406 21.15625 -19.359375 C 20.8125 -19.023438 20.628906 -18.613281 20.609375 -18.125 L 20.609375 -3.28125 C 20.609375 -2.164062 20.675781 -1.109375 20.8125 -0.109375 L 20.859375 0.40625 L 20.609375 0.40625 L 4.921875 -16.34375 L 4.921875 -2.015625 C 4.941406 -1.335938 5.238281 -0.835938 5.8125 -0.515625 C 6.082031 -0.359375 6.367188 -0.28125 6.671875 -0.28125 L 7.21875 -0.28125 L 7.21875 0 L 1.296875 0 L 1.296875 -0.28125 L 1.84375 -0.28125 C 2.320312 -0.28125 2.734375 -0.445312 3.078125 -0.78125 C 3.421875 -1.125 3.59375 -1.546875 3.59375 -2.046875 L 3.59375 -16.984375 C 3.59375 -18.148438 3.523438 -19.195312 3.390625 -20.125 L 3.34375 -20.578125 L 3.625 -20.578125 L 19.3125 -3.828125 L 19.3125 -18.109375 C 19.289062 -18.609375 19.109375 -19.023438 18.765625 -19.359375 C 18.421875 -19.691406 18.007812 -19.859375 17.53125 -19.859375 L 16.984375 -19.859375 L 16.984375 -20.140625 L 22.90625 -20.140625 L 22.90625 -19.859375 Z M 22.390625 -19.859375 "/></g></g></g><g fill="#fffdfa" fill-opacity="1"><g transform="translate(48.591194, 28.761095)"><g><path d="M 12 0.40625 C 8.96875 0.382812 6.5 -0.582031 4.59375 -2.5 C 2.6875 -4.414062 1.734375 -6.941406 1.734375 -10.078125 C 1.734375 -13.222656 2.6875 -15.753906 4.59375 -17.671875 C 6.5 -19.585938 9.023438 -20.546875 12.171875 -20.546875 C 14.742188 -20.546875 17.019531 -19.894531 19 -18.59375 L 19.578125 -14.53125 L 19.3125 -14.53125 C 18.882812 -16.1875 18.03125 -17.457031 16.75 -18.34375 C 15.46875 -19.238281 13.941406 -19.6875 12.171875 -19.6875 C 9.660156 -19.6875 7.648438 -18.8125 6.140625 -17.0625 C 4.640625 -15.320312 3.890625 -13.007812 3.890625 -10.125 C 3.890625 -7.25 4.628906 -4.929688 6.109375 -3.171875 C 7.597656 -1.421875 9.5625 -0.515625 12 -0.453125 C 14.144531 -0.453125 15.941406 -1.039062 17.390625 -2.21875 C 18.941406 -3.476562 19.878906 -5.539062 20.203125 -8.40625 L 20.4375 -8.40625 L 20.09375 -3.890625 C 18.34375 -1.023438 15.644531 0.40625 12 0.40625 Z M 12 0.40625 "/></g></g></g><g fill="#fffdfa" fill-opacity="1"><g transform="translate(69.858261, 28.761095)"><g><path d="M 20.609375 -0.28125 L 20.84375 -0.28125 L 20.84375 0 L 14.359375 0 L 14.359375 -0.28125 L 14.625 -0.28125 C 15.03125 -0.28125 15.332031 -0.410156 15.53125 -0.671875 C 15.726562 -0.929688 15.828125 -1.175781 15.828125 -1.40625 C 15.828125 -1.632812 15.789062 -1.863281 15.71875 -2.09375 L 13.875 -7 L 6.109375 -7 L 4.171875 -2.078125 C 4.097656 -1.847656 4.0625 -1.617188 4.0625 -1.390625 C 4.0625 -1.171875 4.160156 -0.929688 4.359375 -0.671875 C 4.566406 -0.410156 4.867188 -0.28125 5.265625 -0.28125 L 5.53125 -0.28125 L 5.53125 0 L -0.25 0 L -0.25 -0.28125 L 0 -0.28125 C 0.476562 -0.28125 0.945312 -0.429688 1.40625 -0.734375 C 1.875 -1.046875 2.25 -1.5 2.53125 -2.09375 L 9.046875 -17.578125 C 9.753906 -19.140625 10.109375 -20.128906 10.109375 -20.546875 L 10.359375 -20.546875 L 18.078125 -2.09375 C 18.347656 -1.5 18.710938 -1.046875 19.171875 -0.734375 C 19.628906 -0.429688 20.109375 -0.28125 20.609375 -0.28125 Z M 6.453125 -7.859375 L 13.53125 -7.859375 L 10.078125 -17.09375 Z M 6.453125 -7.859375 "/></g></g></g><g fill="#fffdfa" fill-opacity="1"><g transform="translate(89.743975, 28.761095)"><g/></g></g><g fill="#fffdfa" fill-opacity="1"><g transform="translate(96.334104, 28.761095)"><g><path d="M 25.90625 -0.28125 L 26.359375 -0.28125 L 26.359375 0 L 20.125 0 L 20.125 -0.265625 L 20.546875 -0.265625 C 20.867188 -0.265625 21.144531 -0.390625 21.375 -0.640625 C 21.613281 -0.898438 21.710938 -1.1875 21.671875 -1.5 L 20.375 -15.96875 L 14.328125 -2.53125 C 13.796875 -1.363281 13.472656 -0.382812 13.359375 0.40625 L 13.0625 0.40625 L 5.703125 -15.578125 L 4.46875 -1.5 C 4.425781 -1.1875 4.519531 -0.898438 4.75 -0.640625 C 4.976562 -0.390625 5.25 -0.265625 5.5625 -0.265625 L 6.015625 -0.265625 L 6.015625 0 L 0.4375 0 L 0.4375 -0.28125 L 0.890625 -0.28125 C 1.429688 -0.28125 1.894531 -0.441406 2.28125 -0.765625 C 2.675781 -1.097656 2.914062 -1.539062 3 -2.09375 L 5.15625 -20.546875 L 5.4375 -20.546875 L 13.46875 -3.1875 L 21.328125 -20.546875 L 21.578125 -20.546875 L 23.796875 -2.09375 C 23.898438 -1.332031 24.285156 -0.796875 24.953125 -0.484375 C 25.242188 -0.347656 25.5625 -0.28125 25.90625 -0.28125 Z M 25.90625 -0.28125 "/></g></g></g><g fill="#fffdfa" fill-opacity="1"><g transform="translate(122.522267, 28.761095)"><g><path d="M 20.609375 -0.28125 L 20.84375 -0.28125 L 20.84375 0 L 14.359375 0 L 14.359375 -0.28125 L 14.625 -0.28125 C 15.03125 -0.28125 15.332031 -0.410156 15.53125 -0.671875 C 15.726562 -0.929688 15.828125 -1.175781 15.828125 -1.40625 C 15.828125 -1.632812 15.789062 -1.863281 15.71875 -2.09375 L 13.875 -7 L 6.109375 -7 L 4.171875 -2.078125 C 4.097656 -1.847656 4.0625 -1.617188 4.0625 -1.390625 C 4.0625 -1.171875 4.160156 -0.929688 4.359375 -0.671875 C 4.566406 -0.410156 4.867188 -0.28125 5.265625 -0.28125 L 5.53125 -0.28125 L 5.53125 0 L -0.25 0 L -0.25 -0.28125 L 0 -0.28125 C 0.476562 -0.28125 0.945312 -0.429688 1.40625 -0.734375 C 1.875 -1.046875 2.25 -1.5 2.53125 -2.09375 L 9.046875 -17.578125 C 9.753906 -19.140625 10.109375 -20.128906 10.109375 -20.546875 L 10.359375 -20.546875 L 18.078125 -2.09375 C 18.347656 -1.5 18.710938 -1.046875 19.171875 -0.734375 C 19.628906 -0.429688 20.109375 -0.28125 20.609375 -0.28125 Z M 6.453125 -7.859375 L 13.53125 -7.859375 L 10.078125 -17.09375 Z M 6.453125 -7.859375 "/></g></g></g><g fill="#fffdfa" fill-opacity="1"><g transform="translate(142.40799, 28.761095)"><g><path d="M 22.390625 -19.859375 C 21.910156 -19.859375 21.5 -19.691406 21.15625 -19.359375 C 20.8125 -19.023438 20.628906 -18.613281 20.609375 -18.125 L 20.609375 -3.28125 C 20.609375 -2.164062 20.675781 -1.109375 20.8125 -0.109375 L 20.859375 0.40625 L 20.609375 0.40625 L 4.921875 -16.34375 L 4.921875 -2.015625 C 4.941406 -1.335938 5.238281 -0.835938 5.8125 -0.515625 C 6.082031 -0.359375 6.367188 -0.28125 6.671875 -0.28125 L 7.21875 -0.28125 L 7.21875 0 L 1.296875 0 L 1.296875 -0.28125 L 1.84375 -0.28125 C 2.320312 -0.28125 2.734375 -0.445312 3.078125 -0.78125 C 3.421875 -1.125 3.59375 -1.546875 3.59375 -2.046875 L 3.59375 -16.984375 C 3.59375 -18.148438 3.523438 -19.195312 3.390625 -20.125 L 3.34375 -20.578125 L 3.625 -20.578125 L 19.3125 -3.828125 L 19.3125 -18.109375 C 19.289062 -18.609375 19.109375 -19.023438 18.765625 -19.359375 C 18.421875 -19.691406 18.007812 -19.859375 17.53125 -19.859375 L 16.984375 -19.859375 L 16.984375 -20.140625 L 22.90625 -20.140625 L 22.90625 -19.859375 Z M 22.390625 -19.859375 "/></g></g></g><g fill="#fffdfa" fill-opacity="1"><g transform="translate(166.006084, 28.761095)"><g><path d="M 16.8125 0 L 1.734375 0 L 1.734375 -0.265625 L 13.8125 -19.3125 L 4.109375 -19.3125 C 3.628906 -19.289062 3.226562 -19.117188 2.90625 -18.796875 C 2.582031 -18.472656 2.421875 -18.066406 2.421875 -17.578125 L 2.421875 -17.0625 L 2.125 -17.0625 L 2.125 -20.6875 C 2.414062 -20.570312 2.925781 -20.457031 3.65625 -20.34375 C 4.382812 -20.226562 4.894531 -20.171875 5.1875 -20.171875 C 5.488281 -20.171875 5.640625 -20.171875 5.640625 -20.171875 L 13.640625 -20.171875 C 14.578125 -20.171875 15.296875 -20.222656 15.796875 -20.328125 C 16.296875 -20.441406 16.59375 -20.515625 16.6875 -20.546875 L 16.6875 -20.296875 L 4.375 -0.859375 L 13.53125 -0.859375 C 14.539062 -0.859375 15.375 -1.1875 16.03125 -1.84375 C 16.6875 -2.5 17.164062 -3.363281 17.46875 -4.4375 L 17.765625 -4.4375 Z M 16.8125 0 "/></g></g></g><g fill="#fffdfa" fill-opacity="1"><g transform="translate(184.136325, 28.761095)"><g><path d="M 20.609375 -0.28125 L 20.84375 -0.28125 L 20.84375 0 L 14.359375 0 L 14.359375 -0.28125 L 14.625 -0.28125 C 15.03125 -0.28125 15.332031 -0.410156 15.53125 -0.671875 C 15.726562 -0.929688 15.828125 -1.175781 15.828125 -1.40625 C 15.828125 -1.632812 15.789062 -1.863281 15.71875 -2.09375 L 13.875 -7 L 6.109375 -7 L 4.171875 -2.078125 C 4.097656 -1.847656 4.0625 -1.617188 4.0625 -1.390625 C 4.0625 -1.171875 4.160156 -0.929688 4.359375 -0.671875 C 4.566406 -0.410156 4.867188 -0.28125 5.265625 -0.28125 L 5.53125 -0.28125 L 5.53125 0 L -0.25 0 L -0.25 -0.28125 L 0 -0.28125 C 0.476562 -0.28125 0.945312 -0.429688 1.40625 -0.734375 C 1.875 -1.046875 2.25 -1.5 2.53125 -2.09375 L 9.046875 -17.578125 C 9.753906 -19.140625 10.109375 -20.128906 10.109375 -20.546875 L 10.359375 -20.546875 L 18.078125 -2.09375 C 18.347656 -1.5 18.710938 -1.046875 19.171875 -0.734375 C 19.628906 -0.429688 20.109375 -0.28125 20.609375 -0.28125 Z M 6.453125 -7.859375 L 13.53125 -7.859375 L 10.078125 -17.09375 Z M 6.453125 -7.859375 "/></g></g></g><g fill="#fffdfa" fill-opacity="1"><g transform="translate(204.022039, 28.761095)"><g><path d="M 2.09375 -0.28125 C 2.59375 -0.28125 3.019531 -0.457031 3.375 -0.8125 C 3.738281 -1.175781 3.925781 -1.601562 3.9375 -2.09375 L 3.9375 -18.046875 C 3.925781 -18.546875 3.738281 -18.972656 3.375 -19.328125 C 3.019531 -19.679688 2.59375 -19.859375 2.09375 -19.859375 L 1.734375 -19.859375 L 1.734375 -20.140625 L 8.03125 -20.140625 L 8.03125 -19.859375 L 7.65625 -19.859375 C 6.96875 -19.859375 6.441406 -19.5625 6.078125 -18.96875 C 5.898438 -18.675781 5.8125 -18.367188 5.8125 -18.046875 L 5.8125 -0.890625 L 9.921875 -0.890625 C 11.347656 -0.890625 12.429688 -1.207031 13.171875 -1.84375 C 13.921875 -2.476562 14.546875 -3.414062 15.046875 -4.65625 L 15.34375 -4.65625 L 13.671875 0 L 1.734375 0 L 1.734375 -0.28125 Z M 2.09375 -0.28125 "/></g></g></g><g fill="#fffdfa" fill-opacity="1"><g transform="translate(219.590991, 28.761095)"><g><path d="M 20.609375 -0.28125 L 20.84375 -0.28125 L 20.84375 0 L 14.359375 0 L 14.359375 -0.28125 L 14.625 -0.28125 C 15.03125 -0.28125 15.332031 -0.410156 15.53125 -0.671875 C 15.726562 -0.929688 15.828125 -1.175781 15.828125 -1.40625 C 15.828125 -1.632812 15.789062 -1.863281 15.71875 -2.09375 L 13.875 -7 L 6.109375 -7 L 4.171875 -2.078125 C 4.097656 -1.847656 4.0625 -1.617188 4.0625 -1.390625 C 4.0625 -1.171875 4.160156 -0.929688 4.359375 -0.671875 C 4.566406 -0.410156 4.867188 -0.28125 5.265625 -0.28125 L 5.53125 -0.28125 L 5.53125 0 L -0.25 0 L -0.25 -0.28125 L 0 -0.28125 C 0.476562 -0.28125 0.945312 -0.429688 1.40625 -0.734375 C 1.875 -1.046875 2.25 -1.5 2.53125 -2.09375 L 9.046875 -17.578125 C 9.753906 -19.140625 10.109375 -20.128906 10.109375 -20.546875 L 10.359375 -20.546875 L 18.078125 -2.09375 C 18.347656 -1.5 18.710938 -1.046875 19.171875 -0.734375 C 19.628906 -0.429688 20.109375 -0.28125 20.609375 -0.28125 Z M 6.453125 -7.859375 L 13.53125 -7.859375 L 10.078125 -17.09375 Z M 6.453125 -7.859375 "/></g></g></g></g></g><g transform="matrix(1, 0, 0, 1, 124, 260)"><g clip-path="url(#ddbee1651d)"><g fill="#fffdfa" fill-opacity="1"><g transform="translate(2.515231, 9.16427)"><g><path d="M 2.71875 -6.21875 C 2.71875 -6.1875 2.65625 -6.171875 2.53125 -6.171875 C 2.40625 -6.171875 2.28125 -6.128906 2.15625 -6.046875 C 2.039062 -5.960938 1.984375 -5.789062 1.984375 -5.53125 L 1.984375 0.046875 C 1.984375 0.710938 1.796875 1.335938 1.421875 1.921875 C 1.160156 2.316406 0.832031 2.597656 0.4375 2.765625 C 0.226562 2.847656 0.0195312 2.890625 -0.1875 2.890625 C -0.40625 2.890625 -0.613281 2.835938 -0.8125 2.734375 C -1.019531 2.640625 -1.125 2.53125 -1.125 2.40625 C -1.125 2.289062 -1.078125 2.191406 -0.984375 2.109375 C -0.890625 2.035156 -0.789062 2 -0.6875 2 C -0.582031 2 -0.492188 2.007812 -0.421875 2.03125 C -0.359375 2.050781 -0.300781 2.078125 -0.25 2.109375 C -0.207031 2.140625 -0.164062 2.171875 -0.125 2.203125 C -0.09375 2.242188 -0.046875 2.289062 0.015625 2.34375 C 0.0859375 2.394531 0.1875 2.421875 0.3125 2.421875 C 0.539062 2.421875 0.710938 2.320312 0.828125 2.125 C 0.953125 1.9375 1.03125 1.710938 1.0625 1.453125 C 1.09375 1.191406 1.109375 0.859375 1.109375 0.453125 L 1.109375 -5.640625 C 1.109375 -5.941406 0.9375 -6.113281 0.59375 -6.15625 C 0.488281 -6.164062 0.367188 -6.171875 0.234375 -6.171875 C 0.210938 -6.171875 0.203125 -6.1875 0.203125 -6.21875 L 0.203125 -6.328125 C 0.203125 -6.347656 0.210938 -6.359375 0.234375 -6.359375 L 2.6875 -6.359375 C 2.707031 -6.359375 2.71875 -6.347656 2.71875 -6.328125 Z M 2.71875 -6.21875 "/></g></g></g><g fill="#fffdfa" fill-opacity="1"><g transform="translate(7.124882, 9.16427)"><g><path d="M 2.40625 -0.03125 C 2.40625 -0.0078125 2.390625 0 2.359375 0 L 0.0625 0 C 0.03125 0 0.015625 -0.0078125 0.015625 -0.03125 L 0.015625 -0.140625 C 0.015625 -0.171875 0.0351562 -0.1875 0.078125 -0.1875 C 0.492188 -0.195312 0.773438 -0.414062 0.921875 -0.84375 L 2.75 -6.15625 C 2.757812 -6.164062 2.765625 -6.175781 2.765625 -6.1875 L 2.703125 -6.328125 C 2.703125 -6.347656 2.710938 -6.359375 2.734375 -6.359375 L 3.625 -6.359375 C 3.632812 -6.359375 3.644531 -6.351562 3.65625 -6.34375 C 3.664062 -6.34375 3.671875 -6.335938 3.671875 -6.328125 L 5.59375 -0.96875 C 5.632812 -0.882812 5.664062 -0.8125 5.6875 -0.75 C 5.707031 -0.6875 5.738281 -0.625 5.78125 -0.5625 C 5.851562 -0.445312 5.96875 -0.351562 6.125 -0.28125 C 6.269531 -0.21875 6.398438 -0.1875 6.515625 -0.1875 C 6.535156 -0.1875 6.546875 -0.171875 6.546875 -0.140625 L 6.546875 -0.03125 C 6.546875 -0.0078125 6.535156 0 6.515625 0 L 3.75 0 C 3.726562 0 3.71875 -0.0078125 3.71875 -0.03125 L 3.71875 -0.140625 C 3.71875 -0.171875 3.769531 -0.1875 3.875 -0.1875 C 3.988281 -0.195312 4.082031 -0.203125 4.15625 -0.203125 C 4.570312 -0.253906 4.78125 -0.394531 4.78125 -0.625 C 4.78125 -0.644531 4.78125 -0.664062 4.78125 -0.6875 L 4.09375 -2.609375 C 4.09375 -2.617188 4.085938 -2.632812 4.078125 -2.65625 C 4.035156 -2.757812 3.972656 -2.8125 3.890625 -2.8125 L 2.28125 -2.8125 C 2.195312 -2.8125 2.128906 -2.757812 2.078125 -2.65625 C 2.066406 -2.632812 2.0625 -2.625 2.0625 -2.625 L 1.390625 -0.640625 L 1.390625 -0.609375 C 1.390625 -0.523438 1.425781 -0.453125 1.5 -0.390625 C 1.6875 -0.253906 1.9375 -0.1875 2.25 -0.1875 L 2.359375 -0.1875 C 2.390625 -0.1875 2.40625 -0.171875 2.40625 -0.140625 Z M 3.734375 -3.3125 C 3.785156 -3.3125 3.8125 -3.332031 3.8125 -3.375 C 3.8125 -3.394531 3.804688 -3.421875 3.796875 -3.453125 L 3.125 -5.3125 C 3.09375 -5.382812 3.070312 -5.421875 3.0625 -5.421875 C 3.039062 -5.421875 3.015625 -5.378906 2.984375 -5.296875 L 2.359375 -3.453125 C 2.335938 -3.421875 2.328125 -3.390625 2.328125 -3.359375 C 2.328125 -3.328125 2.351562 -3.3125 2.40625 -3.3125 Z M 3.734375 -3.3125 "/></g></g></g><g fill="#fffdfa" fill-opacity="1"><g transform="translate(15.177702, 9.16427)"><g><path d="M 0.234375 0 C 0.210938 0 0.203125 -0.03125 0.203125 -0.09375 L 0.203125 -0.140625 C 0.203125 -0.171875 0.210938 -0.1875 0.234375 -0.1875 C 0.253906 -0.1875 0.28125 -0.1875 0.3125 -0.1875 C 0.351562 -0.195312 0.394531 -0.203125 0.4375 -0.203125 C 0.476562 -0.210938 0.515625 -0.21875 0.546875 -0.21875 C 0.585938 -0.226562 0.617188 -0.238281 0.640625 -0.25 C 0.941406 -0.3125 1.09375 -0.484375 1.09375 -0.765625 L 1.09375 -5.53125 C 1.09375 -5.789062 0.988281 -5.972656 0.78125 -6.078125 C 0.65625 -6.140625 0.523438 -6.171875 0.390625 -6.171875 L 0.21875 -6.171875 C 0.195312 -6.171875 0.1875 -6.1875 0.1875 -6.21875 L 0.1875 -6.328125 C 0.1875 -6.347656 0.203125 -6.359375 0.234375 -6.359375 L 2.703125 -6.421875 L 3.171875 -6.421875 C 3.703125 -6.390625 4.144531 -6.195312 4.5 -5.84375 C 4.863281 -5.5 5.046875 -5.066406 5.046875 -4.546875 C 5.046875 -4.035156 4.832031 -3.640625 4.40625 -3.359375 C 4.269531 -3.265625 4.125 -3.1875 3.96875 -3.125 L 5.34375 -0.890625 C 5.570312 -0.492188 5.890625 -0.21875 6.296875 -0.0625 C 6.328125 -0.0507812 6.34375 -0.03125 6.34375 0 C 6.34375 0.0703125 6.296875 0.109375 6.203125 0.109375 C 5.523438 0.109375 4.984375 -0.144531 4.578125 -0.65625 C 4.492188 -0.769531 4.40625 -0.898438 4.3125 -1.046875 L 3.15625 -2.875 L 2.078125 -2.921875 L 2.046875 -2.921875 C 1.992188 -2.921875 1.96875 -2.898438 1.96875 -2.859375 L 1.96875 -0.78125 C 1.96875 -0.613281 2.015625 -0.488281 2.109375 -0.40625 C 2.203125 -0.320312 2.363281 -0.269531 2.59375 -0.25 C 2.65625 -0.238281 2.726562 -0.222656 2.8125 -0.203125 C 2.90625 -0.191406 2.96875 -0.1875 3 -0.1875 C 3.03125 -0.1875 3.046875 -0.171875 3.046875 -0.140625 L 3.046875 -0.03125 C 3.046875 -0.0078125 3.03125 0 3 0 Z M 2.328125 -6.1875 C 2.296875 -6.1875 2.257812 -6.1875 2.21875 -6.1875 C 2.1875 -6.1875 2.132812 -6.179688 2.0625 -6.171875 C 2 -6.171875 1.96875 -6.148438 1.96875 -6.109375 L 1.96875 -3.375 L 1.984375 -3.234375 C 1.992188 -3.171875 2.019531 -3.140625 2.0625 -3.140625 L 2.53125 -3.109375 C 3.375 -3.109375 3.882812 -3.410156 4.0625 -4.015625 C 4.113281 -4.203125 4.140625 -4.414062 4.140625 -4.65625 C 4.140625 -5.132812 3.988281 -5.507812 3.6875 -5.78125 C 3.394531 -6.0625 3.019531 -6.203125 2.5625 -6.203125 C 2.519531 -6.203125 2.476562 -6.195312 2.4375 -6.1875 C 2.40625 -6.1875 2.367188 -6.1875 2.328125 -6.1875 Z M 2.328125 -6.1875 "/></g></g></g><g fill="#fffdfa" fill-opacity="1"><g transform="translate(23.059265, 9.16427)"><g><path d="M 0.203125 -6.328125 C 0.203125 -6.359375 0.210938 -6.375 0.234375 -6.375 L 0.34375 -6.375 L 1.78125 -6.40625 C 1.957031 -6.40625 2.148438 -6.40625 2.359375 -6.40625 L 2.921875 -6.40625 C 3.441406 -6.40625 3.832031 -6.382812 4.09375 -6.34375 C 4.351562 -6.3125 4.609375 -6.269531 4.859375 -6.21875 C 5.117188 -6.164062 5.390625 -6.046875 5.671875 -5.859375 C 5.960938 -5.671875 6.21875 -5.445312 6.4375 -5.1875 C 6.875 -4.613281 7.09375 -4 7.09375 -3.34375 C 7.09375 -2.695312 6.921875 -2.113281 6.578125 -1.59375 C 6.085938 -0.832031 5.375 -0.335938 4.4375 -0.109375 C 4.144531 -0.0351562 3.84375 0 3.53125 0 L 0.234375 0 C 0.210938 0 0.203125 -0.0078125 0.203125 -0.03125 L 0.203125 -0.15625 C 0.203125 -0.1875 0.210938 -0.203125 0.234375 -0.203125 L 0.34375 -0.203125 C 0.882812 -0.203125 1.15625 -0.375 1.15625 -0.71875 L 1.15625 -5.65625 C 1.15625 -5.832031 1.085938 -5.960938 0.953125 -6.046875 C 0.828125 -6.128906 0.6875 -6.171875 0.53125 -6.171875 L 0.234375 -6.171875 C 0.210938 -6.171875 0.203125 -6.179688 0.203125 -6.203125 Z M 2.15625 -6.203125 C 2.070312 -6.203125 2.03125 -6.160156 2.03125 -6.078125 L 2.03125 -0.5625 C 2.03125 -0.34375 2.242188 -0.226562 2.671875 -0.21875 C 2.785156 -0.21875 2.910156 -0.21875 3.046875 -0.21875 C 4.003906 -0.21875 4.757812 -0.484375 5.3125 -1.015625 C 5.863281 -1.554688 6.140625 -2.273438 6.140625 -3.171875 C 6.140625 -4.066406 5.882812 -4.796875 5.375 -5.359375 C 4.875 -5.921875 4.207031 -6.203125 3.375 -6.203125 Z M 2.15625 -6.203125 "/></g></g></g><g clip-path="url(#ca1d37defb)"><g fill="#fffdfa" fill-opacity="1"><g transform="translate(32.044982, 9.16427)"><g><path d="M 1.140625 -5.640625 C 1.140625 -5.992188 0.929688 -6.171875 0.515625 -6.171875 C 0.453125 -6.171875 0.421875 -6.1875 0.421875 -6.21875 L 0.421875 -6.328125 C 0.421875 -6.347656 0.429688 -6.359375 0.453125 -6.359375 L 2.703125 -6.359375 C 2.734375 -6.359375 2.75 -6.347656 2.75 -6.328125 L 2.75 -6.21875 C 2.75 -6.1875 2.679688 -6.171875 2.546875 -6.171875 C 2.410156 -6.171875 2.285156 -6.128906 2.171875 -6.046875 C 2.066406 -5.960938 2.015625 -5.789062 2.015625 -5.53125 L 2.015625 -0.71875 C 2.015625 -0.363281 2.222656 -0.1875 2.640625 -0.1875 C 2.703125 -0.1875 2.734375 -0.171875 2.734375 -0.140625 L 2.734375 -0.03125 C 2.734375 -0.0078125 2.722656 0 2.703125 0 L 0.4375 0 C 0.414062 0 0.40625 -0.0078125 0.40625 -0.03125 L 0.40625 -0.140625 C 0.40625 -0.171875 0.46875 -0.1875 0.59375 -0.1875 C 0.726562 -0.1875 0.851562 -0.226562 0.96875 -0.3125 C 1.082031 -0.394531 1.140625 -0.566406 1.140625 -0.828125 Z M 1.140625 -7.1875 C 1.117188 -7.195312 1.109375 -7.207031 1.109375 -7.21875 C 1.109375 -7.226562 1.117188 -7.238281 1.140625 -7.25 L 2.09375 -8.578125 C 2.195312 -8.722656 2.300781 -8.796875 2.40625 -8.796875 C 2.519531 -8.796875 2.609375 -8.757812 2.671875 -8.6875 C 2.734375 -8.625 2.765625 -8.535156 2.765625 -8.421875 C 2.765625 -8.304688 2.679688 -8.179688 2.515625 -8.046875 L 1.296875 -7.0625 C 1.285156 -7.050781 1.273438 -7.046875 1.265625 -7.046875 C 1.253906 -7.046875 1.242188 -7.050781 1.234375 -7.0625 Z M 1.140625 -7.1875 "/></g></g></g></g><g fill="#fffdfa" fill-opacity="1"><g transform="translate(36.681673, 9.16427)"><g><path d="M 0.3125 0 C 0.28125 0 0.265625 -0.0078125 0.265625 -0.03125 L 0.265625 -0.140625 C 0.265625 -0.171875 0.28125 -0.1875 0.3125 -0.1875 L 0.421875 -0.1875 C 0.585938 -0.1875 0.695312 -0.195312 0.75 -0.21875 C 0.976562 -0.332031 1.09375 -0.632812 1.09375 -1.125 L 1.09375 -5.796875 C 1.09375 -6.003906 0.894531 -6.125 0.5 -6.15625 C 0.414062 -6.164062 0.351562 -6.171875 0.3125 -6.171875 C 0.28125 -6.171875 0.265625 -6.1875 0.265625 -6.21875 L 0.265625 -6.328125 C 0.265625 -6.347656 0.28125 -6.359375 0.3125 -6.359375 L 1.953125 -6.359375 L 6.234375 -1.625 C 6.253906 -1.613281 6.265625 -1.601562 6.265625 -1.59375 C 6.273438 -1.582031 6.285156 -1.578125 6.296875 -1.578125 C 6.304688 -1.578125 6.3125 -1.59375 6.3125 -1.625 L 6.3125 -4.734375 C 6.3125 -5.328125 6.257812 -5.710938 6.15625 -5.890625 C 6.0625 -6.078125 5.863281 -6.171875 5.5625 -6.171875 L 5.34375 -6.171875 C 5.3125 -6.171875 5.296875 -6.1875 5.296875 -6.21875 L 5.296875 -6.328125 C 5.296875 -6.347656 5.3125 -6.359375 5.34375 -6.359375 L 7.6875 -6.359375 C 7.707031 -6.359375 7.71875 -6.347656 7.71875 -6.328125 L 7.71875 -6.21875 C 7.71875 -6.1875 7.671875 -6.171875 7.578125 -6.171875 C 7.492188 -6.171875 7.347656 -6.117188 7.140625 -6.015625 C 6.941406 -5.921875 6.84375 -5.796875 6.84375 -5.640625 L 6.84375 -0.125 C 6.84375 -0.0625 6.832031 -0.0195312 6.8125 0 C 6.800781 0.03125 6.757812 0.046875 6.6875 0.046875 C 6.625 0.046875 6.570312 0.03125 6.53125 0 C 6.5 -0.0195312 6.460938 -0.0546875 6.421875 -0.109375 L 1.765625 -5.25 C 1.742188 -5.28125 1.71875 -5.296875 1.6875 -5.296875 C 1.675781 -5.296875 1.671875 -5.28125 1.671875 -5.25 L 1.671875 -0.75 C 1.671875 -0.476562 1.882812 -0.300781 2.3125 -0.21875 C 2.4375 -0.195312 2.53125 -0.1875 2.59375 -0.1875 C 2.65625 -0.1875 2.6875 -0.171875 2.6875 -0.140625 L 2.6875 -0.03125 C 2.6875 -0.0078125 2.675781 0 2.65625 0 Z M 0.3125 0 "/></g></g></g><g fill="#fffdfa" fill-opacity="1"><g transform="translate(46.041455, 9.16427)"><g/></g></g><g fill="#fffdfa" fill-opacity="1"><g transform="translate(50.006634, 9.16427)"><g><path d="M 0.203125 -6.328125 C 0.203125 -6.359375 0.210938 -6.375 0.234375 -6.375 L 0.34375 -6.375 L 1.78125 -6.40625 C 1.957031 -6.40625 2.148438 -6.40625 2.359375 -6.40625 L 2.921875 -6.40625 C 3.441406 -6.40625 3.832031 -6.382812 4.09375 -6.34375 C 4.351562 -6.3125 4.609375 -6.269531 4.859375 -6.21875 C 5.117188 -6.164062 5.390625 -6.046875 5.671875 -5.859375 C 5.960938 -5.671875 6.21875 -5.445312 6.4375 -5.1875 C 6.875 -4.613281 7.09375 -4 7.09375 -3.34375 C 7.09375 -2.695312 6.921875 -2.113281 6.578125 -1.59375 C 6.085938 -0.832031 5.375 -0.335938 4.4375 -0.109375 C 4.144531 -0.0351562 3.84375 0 3.53125 0 L 0.234375 0 C 0.210938 0 0.203125 -0.0078125 0.203125 -0.03125 L 0.203125 -0.15625 C 0.203125 -0.1875 0.210938 -0.203125 0.234375 -0.203125 L 0.34375 -0.203125 C 0.882812 -0.203125 1.15625 -0.375 1.15625 -0.71875 L 1.15625 -5.65625 C 1.15625 -5.832031 1.085938 -5.960938 0.953125 -6.046875 C 0.828125 -6.128906 0.6875 -6.171875 0.53125 -6.171875 L 0.234375 -6.171875 C 0.210938 -6.171875 0.203125 -6.179688 0.203125 -6.203125 Z M 2.15625 -6.203125 C 2.070312 -6.203125 2.03125 -6.160156 2.03125 -6.078125 L 2.03125 -0.5625 C 2.03125 -0.34375 2.242188 -0.226562 2.671875 -0.21875 C 2.785156 -0.21875 2.910156 -0.21875 3.046875 -0.21875 C 4.003906 -0.21875 4.757812 -0.484375 5.3125 -1.015625 C 5.863281 -1.554688 6.140625 -2.273438 6.140625 -3.171875 C 6.140625 -4.066406 5.882812 -4.796875 5.375 -5.359375 C 4.875 -5.921875 4.207031 -6.203125 3.375 -6.203125 Z M 2.15625 -6.203125 "/></g></g></g><g fill="#fffdfa" fill-opacity="1"><g transform="translate(58.992351, 9.16427)"><g><path d="M 0.03125 -0.03125 L 0.03125 -0.15625 C 0.03125 -0.1875 0.0390625 -0.203125 0.0625 -0.203125 L 0.171875 -0.203125 C 0.296875 -0.210938 0.421875 -0.21875 0.546875 -0.21875 C 0.679688 -0.21875 0.804688 -0.234375 0.921875 -0.265625 C 1.160156 -0.335938 1.28125 -0.515625 1.28125 -0.796875 L 1.28125 -5.5625 C 1.28125 -5.851562 1.101562 -6.039062 0.75 -6.125 C 0.65625 -6.144531 0.554688 -6.160156 0.453125 -6.171875 L 0.359375 -6.171875 C 0.335938 -6.171875 0.328125 -6.1875 0.328125 -6.21875 L 0.328125 -6.328125 C 0.328125 -6.347656 0.335938 -6.359375 0.359375 -6.359375 L 4.65625 -6.359375 C 4.707031 -6.359375 4.742188 -6.347656 4.765625 -6.328125 C 4.785156 -6.304688 4.800781 -6.265625 4.8125 -6.203125 L 4.890625 -4.890625 C 4.890625 -4.859375 4.863281 -4.84375 4.8125 -4.84375 C 4.769531 -4.84375 4.738281 -4.859375 4.71875 -4.890625 C 4.707031 -4.921875 4.6875 -5.03125 4.65625 -5.21875 C 4.625 -5.40625 4.570312 -5.5625 4.5 -5.6875 C 4.425781 -5.8125 4.296875 -5.890625 4.109375 -5.921875 L 2.21875 -5.921875 C 2.1875 -5.921875 2.171875 -5.90625 2.171875 -5.875 L 2.171875 -3.546875 C 2.171875 -3.515625 2.179688 -3.5 2.203125 -3.5 L 3.765625 -3.5 C 4.171875 -3.5 4.375 -3.734375 4.375 -4.203125 C 4.375 -4.222656 4.382812 -4.234375 4.40625 -4.234375 L 4.515625 -4.234375 C 4.535156 -4.234375 4.546875 -4.222656 4.546875 -4.203125 L 4.546875 -2.265625 C 4.546875 -2.242188 4.535156 -2.234375 4.515625 -2.234375 L 4.40625 -2.234375 C 4.382812 -2.234375 4.375 -2.242188 4.375 -2.265625 C 4.375 -2.710938 4.242188 -2.96875 3.984375 -3.03125 C 3.910156 -3.050781 3.832031 -3.0625 3.75 -3.0625 L 2.203125 -3.0625 C 2.179688 -3.0625 2.171875 -3.046875 2.171875 -3.015625 L 2.171875 -0.828125 C 2.171875 -0.597656 2.269531 -0.46875 2.46875 -0.4375 C 2.53125 -0.425781 2.597656 -0.421875 2.671875 -0.421875 L 4.171875 -0.421875 C 4.472656 -0.421875 4.710938 -0.5625 4.890625 -0.84375 C 5.015625 -1.03125 5.085938 -1.253906 5.109375 -1.515625 C 5.117188 -1.597656 5.164062 -1.640625 5.25 -1.640625 C 5.28125 -1.640625 5.296875 -1.617188 5.296875 -1.578125 L 5.15625 -0.0625 C 5.132812 -0.0195312 5.113281 0 5.09375 0 L 0.0625 0 C 0.0390625 0 0.03125 -0.0078125 0.03125 -0.03125 Z M 0.03125 -0.03125 "/></g></g></g><g fill="#fffdfa" fill-opacity="1"><g transform="translate(66.175361, 9.16427)"><g/></g></g><g fill="#fffdfa" fill-opacity="1"><g transform="translate(70.140539, 9.16427)"><g><path d="M 0.03125 -0.03125 L 0.03125 -0.15625 C 0.03125 -0.1875 0.0390625 -0.203125 0.0625 -0.203125 L 0.171875 -0.203125 C 0.296875 -0.210938 0.421875 -0.21875 0.546875 -0.21875 C 0.679688 -0.21875 0.804688 -0.234375 0.921875 -0.265625 C 1.160156 -0.335938 1.28125 -0.515625 1.28125 -0.796875 L 1.28125 -5.5625 C 1.28125 -5.851562 1.101562 -6.039062 0.75 -6.125 C 0.65625 -6.144531 0.554688 -6.160156 0.453125 -6.171875 L 0.359375 -6.171875 C 0.335938 -6.171875 0.328125 -6.1875 0.328125 -6.21875 L 0.328125 -6.328125 C 0.328125 -6.347656 0.335938 -6.359375 0.359375 -6.359375 L 4.65625 -6.359375 C 4.707031 -6.359375 4.742188 -6.347656 4.765625 -6.328125 C 4.785156 -6.304688 4.800781 -6.265625 4.8125 -6.203125 L 4.890625 -4.890625 C 4.890625 -4.859375 4.863281 -4.84375 4.8125 -4.84375 C 4.769531 -4.84375 4.738281 -4.859375 4.71875 -4.890625 C 4.707031 -4.921875 4.6875 -5.03125 4.65625 -5.21875 C 4.625 -5.40625 4.570312 -5.5625 4.5 -5.6875 C 4.425781 -5.8125 4.296875 -5.890625 4.109375 -5.921875 L 2.21875 -5.921875 C 2.1875 -5.921875 2.171875 -5.90625 2.171875 -5.875 L 2.171875 -3.546875 C 2.171875 -3.515625 2.179688 -3.5 2.203125 -3.5 L 3.765625 -3.5 C 4.171875 -3.5 4.375 -3.734375 4.375 -4.203125 C 4.375 -4.222656 4.382812 -4.234375 4.40625 -4.234375 L 4.515625 -4.234375 C 4.535156 -4.234375 4.546875 -4.222656 4.546875 -4.203125 L 4.546875 -2.265625 C 4.546875 -2.242188 4.535156 -2.234375 4.515625 -2.234375 L 4.40625 -2.234375 C 4.382812 -2.234375 4.375 -2.242188 4.375 -2.265625 C 4.375 -2.710938 4.242188 -2.96875 3.984375 -3.03125 C 3.910156 -3.050781 3.832031 -3.0625 3.75 -3.0625 L 2.203125 -3.0625 C 2.179688 -3.0625 2.171875 -3.046875 2.171875 -3.015625 L 2.171875 -0.828125 C 2.171875 -0.597656 2.269531 -0.46875 2.46875 -0.4375 C 2.53125 -0.425781 2.597656 -0.421875 2.671875 -0.421875 L 4.171875 -0.421875 C 4.472656 -0.421875 4.710938 -0.5625 4.890625 -0.84375 C 5.015625 -1.03125 5.085938 -1.253906 5.109375 -1.515625 C 5.117188 -1.597656 5.164062 -1.640625 5.25 -1.640625 C 5.28125 -1.640625 5.296875 -1.617188 5.296875 -1.578125 L 5.15625 -0.0625 C 5.132812 -0.0195312 5.113281 0 5.09375 0 L 0.0625 0 C 0.0390625 0 0.03125 -0.0078125 0.03125 -0.03125 Z M 0.03125 -0.03125 "/></g></g></g><g fill="#fffdfa" fill-opacity="1"><g transform="translate(77.323549, 9.16427)"><g><path d="M 6.765625 -6.21875 C 6.765625 -6.1875 6.753906 -6.171875 6.734375 -6.171875 L 6.5625 -6.171875 C 6.175781 -6.097656 5.894531 -5.785156 5.71875 -5.234375 C 5.664062 -5.085938 5.613281 -4.945312 5.5625 -4.8125 L 3.796875 -0.03125 C 3.765625 0.0390625 3.726562 0.0820312 3.6875 0.09375 C 3.65625 0.113281 3.601562 0.125 3.53125 0.125 L 3.328125 0.125 C 3.253906 0.125 3.207031 0.0859375 3.1875 0.015625 L 0.8125 -5.734375 C 0.707031 -5.972656 0.46875 -6.117188 0.09375 -6.171875 C 0.0703125 -6.171875 0.0507812 -6.171875 0.03125 -6.171875 C 0.0195312 -6.171875 0.015625 -6.1875 0.015625 -6.21875 L 0.015625 -6.328125 C 0.015625 -6.347656 0.03125 -6.359375 0.0625 -6.359375 L 2.71875 -6.359375 C 2.738281 -6.359375 2.75 -6.347656 2.75 -6.328125 L 2.75 -6.21875 C 2.75 -6.1875 2.738281 -6.171875 2.71875 -6.171875 L 2.65625 -6.171875 C 2.570312 -6.160156 2.484375 -6.148438 2.390625 -6.140625 C 2.003906 -6.085938 1.8125 -5.9375 1.8125 -5.6875 C 1.8125 -5.601562 1.832031 -5.515625 1.875 -5.421875 L 3.578125 -1.265625 C 3.609375 -1.203125 3.640625 -1.203125 3.671875 -1.265625 L 5.25 -5.515625 C 5.269531 -5.578125 5.28125 -5.648438 5.28125 -5.734375 C 5.28125 -5.816406 5.242188 -5.894531 5.171875 -5.96875 C 5.109375 -6.039062 5.039062 -6.082031 4.96875 -6.09375 C 4.894531 -6.113281 4.835938 -6.125 4.796875 -6.125 C 4.753906 -6.132812 4.691406 -6.144531 4.609375 -6.15625 C 4.535156 -6.164062 4.484375 -6.171875 4.453125 -6.171875 C 4.429688 -6.171875 4.421875 -6.1875 4.421875 -6.21875 L 4.421875 -6.328125 C 4.421875 -6.347656 4.429688 -6.359375 4.453125 -6.359375 L 6.734375 -6.359375 C 6.753906 -6.359375 6.765625 -6.347656 6.765625 -6.328125 Z M 6.765625 -6.21875 "/></g></g></g><g fill="#fffdfa" fill-opacity="1"><g transform="translate(85.592694, 9.16427)"><g><path d="M 0.03125 -0.03125 L 0.03125 -0.15625 C 0.03125 -0.1875 0.0390625 -0.203125 0.0625 -0.203125 L 0.171875 -0.203125 C 0.296875 -0.210938 0.421875 -0.21875 0.546875 -0.21875 C 0.679688 -0.21875 0.804688 -0.234375 0.921875 -0.265625 C 1.160156 -0.335938 1.28125 -0.515625 1.28125 -0.796875 L 1.28125 -5.5625 C 1.28125 -5.851562 1.101562 -6.039062 0.75 -6.125 C 0.65625 -6.144531 0.554688 -6.160156 0.453125 -6.171875 L 0.359375 -6.171875 C 0.335938 -6.171875 0.328125 -6.1875 0.328125 -6.21875 L 0.328125 -6.328125 C 0.328125 -6.347656 0.335938 -6.359375 0.359375 -6.359375 L 4.65625 -6.359375 C 4.707031 -6.359375 4.742188 -6.347656 4.765625 -6.328125 C 4.785156 -6.304688 4.800781 -6.265625 4.8125 -6.203125 L 4.890625 -4.890625 C 4.890625 -4.859375 4.863281 -4.84375 4.8125 -4.84375 C 4.769531 -4.84375 4.738281 -4.859375 4.71875 -4.890625 C 4.707031 -4.921875 4.6875 -5.03125 4.65625 -5.21875 C 4.625 -5.40625 4.570312 -5.5625 4.5 -5.6875 C 4.425781 -5.8125 4.296875 -5.890625 4.109375 -5.921875 L 2.21875 -5.921875 C 2.1875 -5.921875 2.171875 -5.90625 2.171875 -5.875 L 2.171875 -3.546875 C 2.171875 -3.515625 2.179688 -3.5 2.203125 -3.5 L 3.765625 -3.5 C 4.171875 -3.5 4.375 -3.734375 4.375 -4.203125 C 4.375 -4.222656 4.382812 -4.234375 4.40625 -4.234375 L 4.515625 -4.234375 C 4.535156 -4.234375 4.546875 -4.222656 4.546875 -4.203125 L 4.546875 -2.265625 C 4.546875 -2.242188 4.535156 -2.234375 4.515625 -2.234375 L 4.40625 -2.234375 C 4.382812 -2.234375 4.375 -2.242188 4.375 -2.265625 C 4.375 -2.710938 4.242188 -2.96875 3.984375 -3.03125 C 3.910156 -3.050781 3.832031 -3.0625 3.75 -3.0625 L 2.203125 -3.0625 C 2.179688 -3.0625 2.171875 -3.046875 2.171875 -3.015625 L 2.171875 -0.828125 C 2.171875 -0.597656 2.269531 -0.46875 2.46875 -0.4375 C 2.53125 -0.425781 2.597656 -0.421875 2.671875 -0.421875 L 4.171875 -0.421875 C 4.472656 -0.421875 4.710938 -0.5625 4.890625 -0.84375 C 5.015625 -1.03125 5.085938 -1.253906 5.109375 -1.515625 C 5.117188 -1.597656 5.164062 -1.640625 5.25 -1.640625 C 5.28125 -1.640625 5.296875 -1.617188 5.296875 -1.578125 L 5.15625 -0.0625 C 5.132812 -0.0195312 5.113281 0 5.09375 0 L 0.0625 0 C 0.0390625 0 0.03125 -0.0078125 0.03125 -0.03125 Z M 0.03125 -0.03125 "/></g></g></g><g fill="#fffdfa" fill-opacity="1"><g transform="translate(92.775704, 9.16427)"><g><path d="M 0.3125 0 C 0.28125 0 0.265625 -0.0078125 0.265625 -0.03125 L 0.265625 -0.140625 C 0.265625 -0.171875 0.28125 -0.1875 0.3125 -0.1875 L 0.421875 -0.1875 C 0.585938 -0.1875 0.695312 -0.195312 0.75 -0.21875 C 0.976562 -0.332031 1.09375 -0.632812 1.09375 -1.125 L 1.09375 -5.796875 C 1.09375 -6.003906 0.894531 -6.125 0.5 -6.15625 C 0.414062 -6.164062 0.351562 -6.171875 0.3125 -6.171875 C 0.28125 -6.171875 0.265625 -6.1875 0.265625 -6.21875 L 0.265625 -6.328125 C 0.265625 -6.347656 0.28125 -6.359375 0.3125 -6.359375 L 1.953125 -6.359375 L 6.234375 -1.625 C 6.253906 -1.613281 6.265625 -1.601562 6.265625 -1.59375 C 6.273438 -1.582031 6.285156 -1.578125 6.296875 -1.578125 C 6.304688 -1.578125 6.3125 -1.59375 6.3125 -1.625 L 6.3125 -4.734375 C 6.3125 -5.328125 6.257812 -5.710938 6.15625 -5.890625 C 6.0625 -6.078125 5.863281 -6.171875 5.5625 -6.171875 L 5.34375 -6.171875 C 5.3125 -6.171875 5.296875 -6.1875 5.296875 -6.21875 L 5.296875 -6.328125 C 5.296875 -6.347656 5.3125 -6.359375 5.34375 -6.359375 L 7.6875 -6.359375 C 7.707031 -6.359375 7.71875 -6.347656 7.71875 -6.328125 L 7.71875 -6.21875 C 7.71875 -6.1875 7.671875 -6.171875 7.578125 -6.171875 C 7.492188 -6.171875 7.347656 -6.117188 7.140625 -6.015625 C 6.941406 -5.921875 6.84375 -5.796875 6.84375 -5.640625 L 6.84375 -0.125 C 6.84375 -0.0625 6.832031 -0.0195312 6.8125 0 C 6.800781 0.03125 6.757812 0.046875 6.6875 0.046875 C 6.625 0.046875 6.570312 0.03125 6.53125 0 C 6.5 -0.0195312 6.460938 -0.0546875 6.421875 -0.109375 L 1.765625 -5.25 C 1.742188 -5.28125 1.71875 -5.296875 1.6875 -5.296875 C 1.675781 -5.296875 1.671875 -5.28125 1.671875 -5.25 L 1.671875 -0.75 C 1.671875 -0.476562 1.882812 -0.300781 2.3125 -0.21875 C 2.4375 -0.195312 2.53125 -0.1875 2.59375 -0.1875 C 2.65625 -0.1875 2.6875 -0.171875 2.6875 -0.140625 L 2.6875 -0.03125 C 2.6875 -0.0078125 2.675781 0 2.65625 0 Z M 0.3125 0 "/></g></g></g><g fill="#fffdfa" fill-opacity="1"><g transform="translate(102.135487, 9.16427)"><g><path d="M 1.796875 -0.140625 C 1.796875 -0.171875 1.8125 -0.1875 1.84375 -0.1875 L 1.96875 -0.1875 C 2.257812 -0.1875 2.492188 -0.25 2.671875 -0.375 C 2.847656 -0.5 2.9375 -0.644531 2.9375 -0.8125 L 2.9375 -5.796875 C 2.9375 -5.859375 2.925781 -5.894531 2.90625 -5.90625 C 2.882812 -5.914062 2.851562 -5.921875 2.8125 -5.921875 L 1.078125 -5.921875 C 0.796875 -5.867188 0.613281 -5.65625 0.53125 -5.28125 C 0.476562 -5.082031 0.445312 -4.953125 0.4375 -4.890625 C 0.4375 -4.835938 0.421875 -4.8125 0.390625 -4.8125 L 0.3125 -4.8125 C 0.289062 -4.8125 0.28125 -4.820312 0.28125 -4.84375 L 0.28125 -4.984375 L 0.453125 -6.390625 C 0.472656 -6.484375 0.503906 -6.53125 0.546875 -6.53125 C 0.585938 -6.53125 0.628906 -6.5 0.671875 -6.4375 C 0.722656 -6.382812 0.816406 -6.359375 0.953125 -6.359375 L 5.8125 -6.359375 C 5.945312 -6.359375 6.023438 -6.375 6.046875 -6.40625 C 6.078125 -6.4375 6.101562 -6.460938 6.125 -6.484375 C 6.144531 -6.515625 6.175781 -6.53125 6.21875 -6.53125 C 6.257812 -6.53125 6.285156 -6.515625 6.296875 -6.484375 C 6.304688 -6.453125 6.3125 -6.421875 6.3125 -6.390625 L 6.484375 -4.984375 L 6.484375 -4.84375 C 6.484375 -4.820312 6.472656 -4.8125 6.453125 -4.8125 L 6.375 -4.8125 C 6.351562 -4.8125 6.335938 -4.835938 6.328125 -4.890625 C 6.273438 -5.191406 6.203125 -5.425781 6.109375 -5.59375 C 6.023438 -5.769531 5.882812 -5.878906 5.6875 -5.921875 L 3.953125 -5.921875 C 3.921875 -5.921875 3.890625 -5.914062 3.859375 -5.90625 C 3.835938 -5.894531 3.828125 -5.859375 3.828125 -5.796875 L 3.828125 -0.8125 C 3.828125 -0.644531 3.914062 -0.5 4.09375 -0.375 C 4.269531 -0.25 4.503906 -0.1875 4.796875 -0.1875 L 4.9375 -0.1875 C 4.957031 -0.1875 4.96875 -0.171875 4.96875 -0.140625 L 4.96875 -0.03125 C 4.96875 -0.0078125 4.957031 0 4.9375 0 L 1.828125 0 C 1.804688 0 1.796875 -0.0078125 1.796875 -0.03125 Z M 1.796875 -0.140625 "/></g></g></g><g fill="#fffdfa" fill-opacity="1"><g transform="translate(110.391107, 9.16427)"><g><path d="M 5.78125 -0.390625 C 5.519531 -0.234375 5.234375 -0.109375 4.921875 -0.015625 C 4.609375 0.078125 4.332031 0.125 4.09375 0.125 C 3.601562 0.125 3.132812 0.0390625 2.6875 -0.125 C 2.070312 -0.34375 1.578125 -0.671875 1.203125 -1.109375 C 0.734375 -1.660156 0.5 -2.363281 0.5 -3.21875 C 0.5 -3.832031 0.65625 -4.390625 0.96875 -4.890625 C 1.28125 -5.398438 1.710938 -5.800781 2.265625 -6.09375 C 2.828125 -6.394531 3.429688 -6.546875 4.078125 -6.546875 C 4.722656 -6.546875 5.296875 -6.398438 5.796875 -6.109375 C 6.304688 -5.828125 6.710938 -5.4375 7.015625 -4.9375 C 7.328125 -4.4375 7.484375 -3.894531 7.484375 -3.3125 C 7.484375 -2.738281 7.332031 -2.1875 7.03125 -1.65625 C 6.726562 -1.132812 6.3125 -0.710938 5.78125 -0.390625 Z M 1.4375 -3.359375 C 1.4375 -2.859375 1.546875 -2.363281 1.765625 -1.875 C 1.992188 -1.382812 2.3125 -0.984375 2.71875 -0.671875 C 3.132812 -0.367188 3.613281 -0.21875 4.15625 -0.21875 C 4.925781 -0.21875 5.523438 -0.507812 5.953125 -1.09375 C 6.335938 -1.625 6.53125 -2.300781 6.53125 -3.125 C 6.53125 -3.957031 6.296875 -4.671875 5.828125 -5.265625 C 5.585938 -5.554688 5.300781 -5.789062 4.96875 -5.96875 C 4.632812 -6.144531 4.296875 -6.234375 3.953125 -6.234375 C 3.609375 -6.234375 3.328125 -6.195312 3.109375 -6.125 C 2.898438 -6.050781 2.707031 -5.945312 2.53125 -5.8125 C 2.351562 -5.6875 2.195312 -5.53125 2.0625 -5.34375 C 1.925781 -5.164062 1.8125 -4.972656 1.71875 -4.765625 C 1.53125 -4.328125 1.4375 -3.859375 1.4375 -3.359375 Z M 1.4375 -3.359375 "/></g></g></g><g fill="#fffdfa" fill-opacity="1"><g transform="translate(119.854541, 9.16427)"><g><path d="M 3.8125 -6.296875 C 3.832031 -6.296875 3.84375 -6.265625 3.84375 -6.203125 L 3.96875 -5.25 C 3.976562 -5.1875 3.984375 -5.144531 3.984375 -5.125 C 3.984375 -5.113281 3.957031 -5.109375 3.90625 -5.109375 C 3.863281 -5.109375 3.835938 -5.113281 3.828125 -5.125 C 3.816406 -5.132812 3.804688 -5.148438 3.796875 -5.171875 C 3.785156 -5.203125 3.769531 -5.234375 3.75 -5.265625 C 3.726562 -5.304688 3.710938 -5.347656 3.703125 -5.390625 C 3.640625 -5.523438 3.539062 -5.660156 3.40625 -5.796875 C 3.070312 -6.117188 2.695312 -6.28125 2.28125 -6.28125 C 2.03125 -6.28125 1.789062 -6.195312 1.5625 -6.03125 C 1.34375 -5.875 1.234375 -5.679688 1.234375 -5.453125 C 1.234375 -5.234375 1.273438 -5.039062 1.359375 -4.875 C 1.441406 -4.71875 1.550781 -4.566406 1.6875 -4.421875 C 1.820312 -4.285156 1.976562 -4.15625 2.15625 -4.03125 C 2.332031 -3.90625 2.507812 -3.78125 2.6875 -3.65625 C 3.164062 -3.320312 3.503906 -3.035156 3.703125 -2.796875 C 4.023438 -2.429688 4.195312 -2.019531 4.21875 -1.5625 C 4.21875 -1.050781 4.019531 -0.640625 3.625 -0.328125 C 3.238281 -0.0234375 2.785156 0.125 2.265625 0.125 C 1.929688 0.125 1.664062 0.0859375 1.46875 0.015625 C 1.269531 -0.046875 1.132812 -0.09375 1.0625 -0.125 C 0.988281 -0.15625 0.929688 -0.171875 0.890625 -0.171875 C 0.859375 -0.171875 0.835938 -0.171875 0.828125 -0.171875 L 0.609375 -0.125 C 0.566406 -0.125 0.539062 -0.15625 0.53125 -0.21875 C 0.445312 -0.957031 0.40625 -1.347656 0.40625 -1.390625 C 0.40625 -1.441406 0.40625 -1.476562 0.40625 -1.5 C 0.414062 -1.519531 0.441406 -1.53125 0.484375 -1.53125 C 0.566406 -1.53125 0.640625 -1.40625 0.703125 -1.15625 C 1.023438 -0.488281 1.550781 -0.15625 2.28125 -0.15625 C 2.613281 -0.15625 2.898438 -0.253906 3.140625 -0.453125 C 3.378906 -0.660156 3.5 -0.925781 3.5 -1.25 C 3.5 -1.769531 3.1875 -2.257812 2.5625 -2.71875 C 2.382812 -2.84375 2.128906 -3.015625 1.796875 -3.234375 C 1.460938 -3.460938 1.195312 -3.691406 1 -3.921875 C 0.6875 -4.265625 0.53125 -4.648438 0.53125 -5.078125 C 0.53125 -5.503906 0.703125 -5.851562 1.046875 -6.125 C 1.390625 -6.40625 1.78125 -6.546875 2.21875 -6.546875 C 2.445312 -6.546875 2.695312 -6.503906 2.96875 -6.421875 C 3.25 -6.347656 3.441406 -6.296875 3.546875 -6.265625 Z M 3.8125 -6.296875 "/></g></g></g></g></g></svg>